<svg height="2048pt" preserveAspectRatio="xMidYMid meet" viewBox="0 0 2048 2048" width="2048pt" xmlns="http://www.w3.org/2000/svg"><g transform="matrix(.1 0 0 -.1 0 2048)"><path d="m2696 18834c-156-38-282-138-354-282-76-152-77-162-77-802 0-554 1-567 23-645 47-169 130-288 243-350 148-80 377-74 509 15l45 30 3-35 3-35h185 184v545 545h-270-270v-160-160h75 75v-153-153l-32-31c-104-101-262-51-309 96-16 49-24 823-10 950 17 151 63 219 161 235 60 9 118-10 157-52 28-30 47-70 78-159 2-7 59 6 170 42 92 30 169 56 173 59 13 13-20 136-58 214-70 147-198 250-352 287-80 19-273 18-352-1z"/><path d="m5426 18834c-215-52-358-208-407-447-17-84-19-140-19-612s2-528 19-612c50-241 192-396 412-448 95-22 287-20 383 5 161 41 270 128 341 274 73 150 75 168 75 781s-2 631-75 781c-71 146-180 233-341 274-94 24-296 26-388 4zm278-409c37-25 57-78 67-178 11-120 11-825-1-945-14-152-58-212-155-212-99 0-140 59-157 222-14 140-5 970 11 1020s56 96 94 108c41 12 111 5 141-15z"/><path d="m13120 18827c-155-53-266-164-320-322-66-192-41-425 63-587 54-85 129-160 287-287 81-66 166-141 190-168 116-130 134-320 35-367-45-22-83-20-135 7-57 28-105 93-128 168-19 67-21 68-108 40-32-11-106-34-163-51l-103-31 7-47c23-152 124-308 258-397 219-145 571-108 733 79 49 56 100 163 120 253 25 114 15 332-19 431-57 160-150 271-367 437-207 158-252 217-251 326 0 104 37 149 122 149 82 0 146-56 185-165 9-27 19-52 20-54 2-2 76 27 164 64 183 78 172 62 125 178-75 186-203 308-370 352-92 24-264 20-345-8z"/><path d="m3680 17775v-1045h225 225v405 405h40c38 0 40-1 53-47 8-27 58-209 113-405l99-358h237c131 0 238 4 238 8 0 5-65 213-144 463l-144 454 54 48c64 58 116 157 141 267 25 114 22 369-6 473-52 197-172 319-353 362-49 12-140 15-420 15h-358zm650 620c31-28 41-57 50-152 9-103-3-240-25-282-22-43-68-61-155-61h-70v261 261l89-4c72-2 93-7 111-23z"/><path d="m6315 18778c4-24 91-493 194-1043l186-1000 251-3 252-2 10 57c5 32 49 295 98 585s90 525 92 524c3-4 192-1142 192-1158 0-5 114-8 254-8h254l31 168c18 92 105 561 195 1042l163 875-225 3c-124 1-227 0-230-2-2-3-47-316-100-695-53-380-99-691-102-691s-52 312-110 693l-106 692-216 3-216 2-10-57c-5-32-54-342-108-690s-101-629-105-625c-3 4-48 314-100 690l-94 682h-228-228z"/><path d="m8610 17775v-1045h200 200l2 515 3 515 244-515 243-515h159 159v1045 1045h-200-200l-2-486-3-487-230 486-230 486-172 1h-173z"/><path d="m10040 18021c0-896-1-883 70-1027 98-199 273-294 545-294s441 92 540 294c76 156 75 140 75 1036v790h-225-224l-3-782-3-783-22-45c-29-58-66-80-135-80-70 0-113 26-141 88-22 47-22 50-25 825l-3 777h-225-224z"/><path d="m11490 17775v-1045h225 225v350 350h113c61 0 141 5 177 11 194 31 337 171 402 394 21 72 23 101 23 285 0 228-12 296-78 430-38 77-130 174-203 212-101 54-137 58-526 58h-358zm660 617c43-44 54-97 54-277 0-178-10-229-53-277-27-30-32-32-120-36l-91-4v311 311h91c86 0 92-1 119-28z"/><path d="m16702 18549c-853-61-1420-511-1616-1282-19-73-41-188-50-255-16-120-22-312-10-312 3 0 49 11 102 24 318 80 782 146 1232 175 858 56 1833-22 2439-195l24-7-6 144c-15 361-127 713-318 999-76 113-235 280-343 361-362 269-867 390-1454 348zm674-360c106-44 110-45 154-32 92 27 205 38 250 24 23-7 39-15 36-18s-56-19-117-34c-61-16-114-30-116-33-2-2 17-19 44-37 26-17 78-54 114-80l66-49 82 21c70 18 89 19 136 9 30-6 55-13 55-15s-26-11-57-20c-32-9-79-26-105-37l-47-20 64-80c98-125 148-232 117-252-5-3-31 25-58 62-62 85-197 222-220 222-9 0-61-21-115-46l-98-47 61-66c131-143 221-281 216-332l-3-33-57 70c-62 76-257 270-300 298-26 17-28 16-96-18-38-19-100-58-136-85-36-28-66-45-66-38 0 38 91 143 175 202l28 21-80 51c-44 29-101 62-126 74l-45 22-74-43c-40-24-117-72-172-107-54-35-100-63-102-61-1 2 5 21 15 43 21 46 93 115 180 171 34 21 61 42 61 45 0 20-245 111-415 154-120 30-128 34-102 44 83 32 374-26 575-115l54-24 38 20c34 17 78 36 170 72l25 10-25 13c-20 12-151 65-245 100l-20 7 20 9c45 20 148 3 261-42z"/><path d="m17361 18005c-57-24-105-46-107-48-3-2 35-29 83-60 49-31 101-67 117-80l29-23 106 45c58 25 108 47 111 49 8 6-49 49-142 107-48 30-89 55-90 55-2 0-50-20-107-45z"/><path d="m16560 16663c-433-15-1094-95-1472-178-142-32-152-41-143-120 8-82 9-101 0-166-7-50-5-59 14-78 28-28 65-27 221 3 282 55 622 99 1020 133 259 22 1171 25 1430 5 418-32 740-73 1000-128 171-36 206-36 235-4 15 17 17 30 11 82-10 78-9 72-1 138 6 48 4 59-15 82-24 31-47 38-245 78-604 122-1348 177-2055 153z"/><path d="m11180 14085v-2296l798 4c764 3 801 4 887 24 266 61 455 163 620 335 207 214 322 476 370 836 22 168 22 2027 0 2195-83 635-424 1036-982 1157-150 32-339 40-1040 40h-653zm1495 1367c96-44 145-117 181-272 16-68 18-163 22-1030 3-970 0-1105-34-1239-32-127-100-213-192-242-22-7-129-14-259-16l-223-5v1417 1417l228-4c211-3 231-5 277-26z"/><path d="m2300 14080v-2290h495 495v885 885h88 89l75-272c41-150 151-549 244-885l169-613h518c284 0 517 3 517 6 0 4-144 460-320 1014s-320 1009-320 1013c0 3 28 25 63 50 198 141 318 367 383 722 25 139 31 564 10 732-32 249-111 475-220 627-50 70-159 178-228 225-72 48-203 107-303 136-183 53-221 55-1017 55h-738zm1380 1396c76-40 110-90 136-203 22-92 32-325 23-498-11-210-43-314-114-373-54-44-96-52-274-52h-161v576 576l178-4c148-3 183-7 212-22z"/><path d="m5340 14075v-2295h1100 1100v450 450h-605-605v535 535h430 430v395 395h-430-430v460 460h585 585v455 455h-1080-1080z"/><path d="m8680 16318c-39-186-950-4519-950-4523 0-3 224-4 497-3l498 3 69 453 70 452h402 402l10-57c5-32 38-237 73-455l64-398h507c280 0 508 3 508 8 0 4-218 1033-484 2287l-483 2280-586 3-585 2zm729-1958c73-470 135-865 138-877l5-23h-287c-225 0-286 3-283 13 3 6 68 404 144 884s142 869 145 865 65-392 138-862z"/><path d="m16435 16039c-343-20-699-66-1045-135-299-59-300-59-300-114 0-53 177-420 308-635 115-191 131-215 149-222 9-3 79 6 157 20 575 109 1276 135 1926 72 176-17 413-54 544-85 77-18 92-19 110-6 56 36 306 481 415 738 50 117 53 161 14 181-103 52-589 134-988 167-363 30-958 38-1290 19z"/><path d="m16590 14853c-408-27-909-91-974-124-68-35-69-73-16-374l39-220 141-3685 141-3685 446-1235c245-679 451-1241 456-1247 5-7 17-13 26-13 13 0 20-20 33-94 39-235 180-407 433-531 132-64 231-98 504-171 417-111 525-160 547-248 9-35-14-106-44-136-84-84-338-120-982-140-689-21-946-46-1186-115-334-97-479-284-420-546 47-211 198-312 543-364 154-24 657-30 1228-16 642 17 953-1 1154-64 167-53 214-111 215-265 1-72-3-94-27-144-141-303-586-446-1647-531-700-57-1636-7-3010 160-1466 178-2783 276-4245 316-469 13-1798 7-2265-11-1003-37-1667-73-3330-180-1914-123-2487-150-3239-150-497 0-914 18-1079 47l-32 5v-96c0-85 2-96 18-96 9 0 90-7 180-15 292-26 727-38 1137-31 773 13 1274 39 3480 181 3109 200 4583 221 6655 94 907-55 1666-125 2665-244 1285-154 2441-209 3135-151 825 70 1262 171 1515 351 134 95 238 241 266 372 17 82 7 243-20 314-57 152-224 250-496 293-253 40-421 42-1525 20-603-12-942 35-1047 148-51 55-72 183-40 244 73 138 315 219 772 259 94 8 373 21 620 30 568 19 726 33 898 76 166 42 250 96 298 194 27 55 33 82 37 149 6 123-33 202-139 276-85 60-195 101-456 170-547 146-730 239-836 421-50 86-73 209-42 226 8 5 195 532 439 1243l424 1235 126 3690 126 3690 45 235c25 129 45 251 45 271 0 53-30 85-93 99-219 47-562 91-857 110-147 9-623 11-740 3zm452-5532c67-2110 78-2405 92-2419 29-30 263-44 289-17 11 10 17 48 21 127 3 62 29 1033 56 2158 28 1125 51 2065 53 2090 2 38 5 45 25 48 19 3 22-1 22-30 0-18 20-1023 45-2232 35-1752 47-2203 58-2213 7-7 31-19 54-26l41-12-248-730c-136-401-252-729-256-728-144 28-454 27-619-1-44-7-81-13-81-12-9 7-522 1471-519 1477 3 4 28 15 55 24s53 21 56 27c6 10 72 4091 74 4519 0 130 3 168 13 172 8 3 19 2 25-2 7-4 39-762 96-2311 48-1268 89-2315 91-2326 3-12 10-24 17-27 7-2 75 1 151 7 159 13 167 18 167 97 0 89 89 4303 96 4527 6 220 7 223 28 220l21-3z"/></g></svg>